inDegrees=no
num_controls=7
num_derivatives=13
num_iterations=145
num_multipliers=7
num_parameters=0
num_slacks=7
num_states=26
objective=5.542788
objective_accelerations=0.430065
objective_balance=0.022450
objective_effort=0.466430
objective_height=4.550971
objective_ligament=0.072872
solver_duration=1567.635666
status=Solve_Succeeded
success=true
DataType=double
version=3
OpenSimVersion=4.4-2022-07-23-0e9fedc
endheader
time	/jointset/ground_pelvis/pelvis_tilt/value	/jointset/ground_pelvis/pelvis_tx/value	/jointset/ground_pelvis/pelvis_ty/value	/jointset/hip_l/hip_flexion_l/value	/jointset/hip_l/hip_adduction_l/value	/jointset/hip_l/hip_rotation_l/value	/jointset/back/lumbar_extension/value	/jointset/patellofemoral_l/patellar_flexion_l/value	/jointset/knee_l/knee_flexion_l/value	/jointset/knee_l/knee_adduction_l/value	/jointset/knee_l/knee_rotation_l/value	/jointset/ankle_l/ankle_angle_l/value	/jointset/subtalar_l/subtalar_angle_l/value	/jointset/ground_pelvis/pelvis_tilt/speed	/jointset/ground_pelvis/pelvis_tx/speed	/jointset/ground_pelvis/pelvis_ty/speed	/jointset/hip_l/hip_flexion_l/speed	/jointset/hip_l/hip_adduction_l/speed	/jointset/hip_l/hip_rotation_l/speed	/jointset/back/lumbar_extension/speed	/jointset/patellofemoral_l/patellar_flexion_l/speed	/jointset/knee_l/knee_flexion_l/speed	/jointset/knee_l/knee_adduction_l/speed	/jointset/knee_l/knee_rotation_l/speed	/jointset/ankle_l/ankle_angle_l/speed	/jointset/subtalar_l/subtalar_angle_l/speed	/forceset/tau_hip_flexion_l	/forceset/tau_hip_adduction_l	/forceset/tau_hip_rotation_l	/forceset/tau_knee_flexion_l	/forceset/tau_ankle_angle_l	/forceset/tau_subtalar_angle_l	/forceset/tau_lumbar_extension	lambda_cid13_p0	lambda_cid13_p1	lambda_cid13_p2	lambda_cid13_p3	lambda_cid13_p4	lambda_cid13_p5	lambda_cid14_p0	/jointset/ground_pelvis/pelvis_tilt/accel	/jointset/ground_pelvis/pelvis_tx/accel	/jointset/ground_pelvis/pelvis_ty/accel	/jointset/hip_l/hip_flexion_l/accel	/jointset/hip_l/hip_adduction_l/accel	/jointset/hip_l/hip_rotation_l/accel	/jointset/back/lumbar_extension/accel	/jointset/patellofemoral_l/patellar_flexion_l/accel	/jointset/knee_l/knee_flexion_l/accel	/jointset/knee_l/knee_adduction_l/accel	/jointset/knee_l/knee_rotation_l/accel	/jointset/ankle_l/ankle_angle_l/accel	/jointset/subtalar_l/subtalar_angle_l/accel	gamma_cid13_p0	gamma_cid13_p1	gamma_cid13_p2	gamma_cid13_p3	gamma_cid13_p4	gamma_cid13_p5	gamma_cid14_p0
1	-0.1342936052836726	-0.08347297932319186	0.7232917513152237	1.244592489199164	-0.3304134822400898	0.01618344950468054	-0.9599260185118077	1.20103130940366	1.201031309404112	-0.08708023371937185	-0.1745240873535772	0.1720770243423655	0.0195044297676709	0.1046988888677305	0.02585314064329877	0.06637164698477495	-0.2900879460364016	-0.001408319702226246	-0.06405876825543395	-0.001752684073975502	-0.1622880240393073	-0.1622880240393007	0.0004635741881997623	-7.404020674049078e-05	0.01453955973985235	0.00477818014648114	-0.3812502438907203	0.01153652407861927	-0.003659954158400659	-0.3167488186804558	0.09602622190610803	0.0417741613340402	0.426990743517226	-19.25667704357494	-14.93681036837761	2.116636921529101	6.106418509532723	-786.4659662930936	-74.15346465158095	-1.05443650425117	0.9429260722514375	0.1507967962838306	1.275872534257777	-4.60233844389366	-0.04816896490588329	-1.459412342096968	0.2377564785001957	-4.256374178092022	-4.25637417809191	-0.2278959016314826	-0.008722486787141636	-0.8868758237895744	-0.3654360871082535	-9.021560598443863e-09	-6.343906010196685e-09	4.210693086425681e-08	3.385163804351872e-09	-2.139772750888865e-08	5.75574598164634e-08	-1.13992470310931e-08
1.01	-0.1331998614500798	-0.08320686713316397	0.7240190436780545	1.24146239011636	-0.3304293358677977	0.01546963109091282	-0.9599309686360763	1.19919603009431	1.199196030094879	-0.08708571192318681	-0.1745245881426384	0.1721782115004086	0.01953474869084122	0.1140542441948946	0.02737521799364187	0.0790759750512742	-0.3359195936790837	-0.001754828057251918	-0.07869783903040663	0.0007789103482994521	-0.204757913460266	-0.2047579134602608	-0.001558607142446767	-2.624304301720369e-05	0.005692473729941206	0.001292378222020622	-0.3804908986578638	0.01169377257526266	-0.003701136693664494	-0.3164314395256165	0.09581234863207656	0.04189374847799578	0.4266414690176946	-19.29119211068754	-14.99438553720021	2.139159413367244	6.006353568709304	-786.082509727113	-74.23888808020001	-1.084458637181596	0.9324936795533304	0.153803180546937	1.26607984620106	-4.571738623097645	-0.02675774986771033	-1.465106392213311	0.2632986096754854	-4.240804651012709	-4.240804651012894	-0.1892958215830017	0.01152535333171728	-0.8844357568564846	-0.3391405220834944	-1.481259111169718e-08	-1.407077503660133e-08	5.710385412051135e-08	9.3458693729682e-09	-2.752421837721729e-08	6.471747581152182e-08	-1.50509348537433e-08
1.02	-0.1320124333798947	-0.08292535617440484	0.7248730527022216	1.237874342417457	-0.3304484277748588	0.01460963158000225	-0.9599101152797443	1.196936350225362	1.196936350226017	-0.08711139525485298	-0.1745246120530719	0.1721907656449007	0.01953041193937333	0.123435736186267	0.02893289438954192	0.09171497925202102	-0.3816776692674367	-0.002055975574962454	-0.09329498768602142	0.003408012193964881	-0.2471681359578208	-0.2471681359578176	-0.003577451385162544	2.133553588847957e-05	-0.003187042970553467	-0.002152954781182969	-0.3797315534247862	0.01185102107196015	-0.003742319228731205	-0.3161140603707648	0.09559847535801957	0.04201333562200306	0.4262921945183559	-19.3366581471299	-15.04935533811929	2.160480757700471	5.947500525521339	-785.8439337654737	-74.31272025446101	-1.122004662189044	0.9481534050929502	0.1579166053952973	1.262807761107324	-4.587624033027873	-0.03909679744271573	-1.45102791822522	0.2572579631801538	-4.244440793411307	-4.244440793411288	-0.227228484045286	-0.008766203750353573	-0.8933619619061361	-0.3573423028566521	-2.021961784630488e-08	-2.347720282272529e-08	7.101275160883206e-08	1.391729603783996e-08	-3.326486216186526e-08	7.092960827574522e-08	-1.880571234922962e-08
1.03	-0.1307315779005358	-0.08262785764153426	0.7258530962954323	1.233829395454868	-0.3304702993781369	0.01360394332405309	-0.9598605136482585	1.194252930844782	1.194252930845177	-0.08715730818138862	-0.1745241545032545	0.1721146453233554	0.019491938772359	0.1326887295817269	0.03059633603020497	0.1042802631819813	-0.4272700827916647	-0.002311752490594885	-0.1078329915531194	0.006725060651351214	-0.2895000596783365	-0.2895000596783265	-0.005608747443090816	6.663358008144814e-05	-0.01201416625086457	-0.005525187806099194	-0.3803876259758733	0.01216707661614613	-0.003795508234342086	-0.3153538219880063	0.09537940882853663	0.04226703943178334	0.4276547318019412	-19.41642552622881	-15.16671072926034	2.203335680866254	5.462232083078788	-786.5037596494375	-74.41639028911447	-1.167411767835369	0.9068759190579002	0.1749902430608209	1.251359442718815	-4.53880689154717	-0.01783358560090513	-1.453756048456119	0.4008402658443669	-4.225211554313243	-4.22521155431217	-0.1916344577225196	0.01066611185502074	-0.8739617713428381	-0.3246946520397472	-2.562272617500803e-08	-3.290076896354027e-08	8.491054679339834e-08	1.847454638736738e-08	-3.900156873137362e-08	7.713206845904171e-08	-2.256154178015306e-08
1.04	-0.1293595917647646	-0.08231283823232502	0.7269583868746985	1.229329772981179	-0.3304945318399615	0.01245316114394155	-0.9597713591363384	1.191146663548405	1.191146663548525	-0.08722364492669757	-0.174523346312434	0.1719509389169581	0.01942023710514943	0.1416618674686224	0.0324370696572717	0.1167643764630948	-0.4726127714929677	-0.002528147285336095	-0.1223137725203879	0.01131858826178495	-0.3317377191165127	-0.3317377191164957	-0.007662215143256183	9.146375830134587e-05	-0.02070425994114331	-0.00879865482024457	-0.3810436985268552	0.01248313216036932	-0.003848697239766798	-0.3145935836052406	0.09516034229904452	0.04252074324160158	0.4290172690856163	-19.50730614577395	-15.28150334824204	2.245077364867363	5.016528466425339	-787.3120222825967	-74.50915359191346	-1.221060301345551	0.8921823033799267	0.1933750026761339	1.246573631338018	-4.537679068442956	-0.03122037326444338	-1.439583338259282	0.512553793788924	-4.225587936943427	-4.225587936943406	-0.231662812492696	-0.01285977694489584	-0.8659560438994994	-0.337589100702388	-2.824625394269172e-08	-4.18596251114895e-08	9.565624053913948e-08	1.839601963265081e-08	-4.262524640496257e-08	7.854035230639236e-08	-2.536128485171626e-08
1.05	-0.1278991458632466	-0.08197857883625149	0.7281880408372077	1.224378059567627	-0.3305207126607702	0.01115795589505148	-0.959630444377097	1.18761859445077	1.187618594450946	-0.08731067978273094	-0.1745223845544703	0.1717009075907416	0.01931627771286945	0.1503913540195275	0.03443893283868845	0.1291454551755596	-0.5176769253313829	-0.002697161368835404	-0.1367124521571035	0.0170241210705873	-0.3738497663205049	-0.3738497663204875	-0.00974584728634737	9.992210208124459e-05	-0.02928950591208222	-0.01197532239791061	-0.3809110350232624	0.01277009872921427	-0.003913336808242208	-0.3136984075751978	0.09499799905658585	0.04280376513349708	0.4295848643527828	-19.53526111086369	-15.42321888568225	2.294734758073187	4.612746877089946	-787.3692046468817	-74.64488502466111	-1.283409931319772	0.8579355848833043	0.2072141006848724	1.230721589276496	-4.482839282456102	-0.008119619384474178	-1.437811936405167	0.6235166454360053	-4.20005734436426	-4.200057344364144	-0.1968927491763713	0.007577657262818623	-0.852937143101725	-0.3050245058603507	-3.078291981784356e-08	-5.080395907216167e-08	1.063034311149174e-07	1.817262484342665e-08	-4.618289192555405e-08	7.979881814324473e-08	-2.813115022454948e-08
1.06	-0.126352484345433	-0.08162357638340155	0.729540874906457	1.21897729346752	-0.3305482591611091	0.009719203517792709	-0.9594276815655297	1.183670196034647	1.183670196034871	-0.08741858682697597	-0.1745213624097015	0.171365398150934	0.0191810878609005	0.158904990727951	0.03658568101255655	0.1414003978110764	-0.5624233088064098	-0.002801283192016538	-0.1510231981949283	0.02368819871979099	-0.4158035828139799	-0.4158035828139621	-0.01183665278780186	0.0001035411347840488	-0.03779988265944422	-0.01504474675804744	-0.3807783715196133	0.013057065298078	-0.003977976376585331	-0.3128032315451513	0.09483565581412168	0.04308678702541085	0.4301524596199966	-19.57431329956639	-15.56250366662418	2.343447547879961	4.24612342488857	-787.5758715840407	-74.77137496119468	-1.354936159572617	0.8490123348834363	0.2223520011665299	1.221346415948458	-4.474124995765372	-0.01824192120089005	-1.421996618481234	0.7042627618688092	-4.193941794839938	-4.193941794839958	-0.2330974841653854	-0.01382763916047903	-0.8509821991839355	-0.3161404571965744	-3.364629192361921e-08	-6.026475957308524e-08	1.139239861876566e-07	1.891824533073674e-08	-4.99839396717841e-08	7.994957205039439e-08	-3.055102380747776e-08
